<mxfile host="app.diagrams.net" agent="Mozilla/5.0 (Windows NT 10.0; Win64; x64) AppleWebKit/537.36 (KHTML, like Gecko) Chrome/130.0.0.0 Safari/537.36 QuarkPC/2.6.0.313" version="26.2.14">
  <diagram name="第 1 页" id="Dag-IHI454TIuJNmHXwQ">
    <mxGraphModel dx="602" dy="643" grid="1" gridSize="10" guides="1" tooltips="1" connect="1" arrows="1" fold="1" page="1" pageScale="1" pageWidth="827" pageHeight="1169" math="0" shadow="0">
      <root>
        <mxCell id="0" />
        <mxCell id="1" parent="0" />
        <mxCell id="G9lIrQecQGFN7doJdilt-107" style="edgeStyle=orthogonalEdgeStyle;rounded=0;orthogonalLoop=1;jettySize=auto;html=1;endArrow=none;endFill=1;strokeColor=#3399FF;strokeWidth=2;startFill=0;entryX=-0.031;entryY=0.466;entryDx=0;entryDy=0;entryPerimeter=0;" edge="1" parent="1" source="G9lIrQecQGFN7doJdilt-72" target="G9lIrQecQGFN7doJdilt-169">
          <mxGeometry relative="1" as="geometry">
            <mxPoint x="482.5" y="625" as="targetPoint" />
          </mxGeometry>
        </mxCell>
        <mxCell id="G9lIrQecQGFN7doJdilt-176" value="" style="rounded=0;whiteSpace=wrap;html=1;fillColor=#FFFFFF;strokeColor=#6c8ebf;" vertex="1" parent="1">
          <mxGeometry x="332.5" y="585" width="140" height="85" as="geometry" />
        </mxCell>
        <mxCell id="G9lIrQecQGFN7doJdilt-154" value="" style="rounded=0;whiteSpace=wrap;html=1;fillColor=#FFFFFF;strokeColor=#6c8ebf;" vertex="1" parent="1">
          <mxGeometry x="970" y="90" width="150" height="80" as="geometry" />
        </mxCell>
        <mxCell id="G9lIrQecQGFN7doJdilt-59" style="edgeStyle=orthogonalEdgeStyle;rounded=0;orthogonalLoop=1;jettySize=auto;html=1;endArrow=none;endFill=1;strokeColor=#3399FF;strokeWidth=2;startFill=0;" edge="1" parent="1" source="G9lIrQecQGFN7doJdilt-47" target="G9lIrQecQGFN7doJdilt-50">
          <mxGeometry relative="1" as="geometry" />
        </mxCell>
        <mxCell id="G9lIrQecQGFN7doJdilt-57" style="edgeStyle=orthogonalEdgeStyle;rounded=0;orthogonalLoop=1;jettySize=auto;html=1;endArrow=none;endFill=1;strokeColor=#3399FF;strokeWidth=2;startFill=0;" edge="1" parent="1" source="G9lIrQecQGFN7doJdilt-41" target="G9lIrQecQGFN7doJdilt-43">
          <mxGeometry relative="1" as="geometry" />
        </mxCell>
        <mxCell id="G9lIrQecQGFN7doJdilt-56" style="edgeStyle=orthogonalEdgeStyle;rounded=0;orthogonalLoop=1;jettySize=auto;html=1;endArrow=none;endFill=1;strokeColor=#3399FF;strokeWidth=2;exitX=0.936;exitY=0.478;exitDx=0;exitDy=0;exitPerimeter=0;startFill=0;entryX=0.022;entryY=0.571;entryDx=0;entryDy=0;entryPerimeter=0;" edge="1" parent="1" source="G9lIrQecQGFN7doJdilt-142" target="G9lIrQecQGFN7doJdilt-39">
          <mxGeometry relative="1" as="geometry">
            <mxPoint x="800" y="130" as="sourcePoint" />
          </mxGeometry>
        </mxCell>
        <mxCell id="G9lIrQecQGFN7doJdilt-152" style="edgeStyle=orthogonalEdgeStyle;rounded=0;orthogonalLoop=1;jettySize=auto;html=1;endArrow=none;endFill=1;strokeColor=#3399FF;strokeWidth=2;startFill=0;entryX=0.125;entryY=0.471;entryDx=0;entryDy=0;entryPerimeter=0;" edge="1" parent="1">
          <mxGeometry relative="1" as="geometry">
            <mxPoint x="730" y="129.86" as="sourcePoint" />
            <mxPoint x="760" y="129.86" as="targetPoint" />
          </mxGeometry>
        </mxCell>
        <mxCell id="G9lIrQecQGFN7doJdilt-151" style="edgeStyle=orthogonalEdgeStyle;rounded=0;orthogonalLoop=1;jettySize=auto;html=1;endArrow=none;endFill=1;strokeColor=#3399FF;strokeWidth=2;startFill=0;entryX=0.125;entryY=0.471;entryDx=0;entryDy=0;entryPerimeter=0;" edge="1" parent="1">
          <mxGeometry relative="1" as="geometry">
            <mxPoint x="670" y="130" as="sourcePoint" />
            <mxPoint x="700" y="130" as="targetPoint" />
          </mxGeometry>
        </mxCell>
        <mxCell id="G9lIrQecQGFN7doJdilt-150" style="edgeStyle=orthogonalEdgeStyle;rounded=0;orthogonalLoop=1;jettySize=auto;html=1;endArrow=none;endFill=1;strokeColor=#3399FF;strokeWidth=2;startFill=0;" edge="1" parent="1">
          <mxGeometry relative="1" as="geometry">
            <mxPoint x="615" y="129.86" as="sourcePoint" />
            <mxPoint x="635" y="129.86" as="targetPoint" />
          </mxGeometry>
        </mxCell>
        <mxCell id="G9lIrQecQGFN7doJdilt-121" value="" style="rounded=0;whiteSpace=wrap;html=1;fillColor=#FFFFFF;strokeColor=#6c8ebf;" vertex="1" parent="1">
          <mxGeometry x="310" y="90" width="250" height="85" as="geometry" />
        </mxCell>
        <mxCell id="G9lIrQecQGFN7doJdilt-1" value="Generator" style="text;html=1;strokeColor=none;fillColor=none;align=left;verticalAlign=middle;whiteSpace=wrap;rounded=0;fontSize=14;fontColor=#FF0000;fontStyle=1" vertex="1" parent="1">
          <mxGeometry x="80" y="40" width="100" height="30" as="geometry" />
        </mxCell>
        <mxCell id="G9lIrQecQGFN7doJdilt-2" value="Discriminator" style="text;html=1;strokeColor=none;fillColor=none;align=left;verticalAlign=middle;whiteSpace=wrap;rounded=0;fontSize=14;fontColor=#FF0000;fontStyle=1" vertex="1" parent="1">
          <mxGeometry x="80" y="490" width="120" height="30" as="geometry" />
        </mxCell>
        <mxCell id="G9lIrQecQGFN7doJdilt-3" value="&lt;i&gt;I&lt;sup&gt;LR&lt;/sup&gt;&lt;/i&gt;" style="shape=rectangle;whiteSpace=wrap;html=1;strokeColor=#a1c7ff;fillColor=#FFFFFF;fontSize=14;verticalAlign=middle;align=center;" vertex="1" parent="1">
          <mxGeometry x="80" y="100" width="60" height="60" as="geometry" />
        </mxCell>
        <mxCell id="G9lIrQecQGFN7doJdilt-4" value="Conv" style="rounded=0;whiteSpace=wrap;html=1;fillColor=#dae8fc;strokeColor=#6c8ebf;align=center;verticalAlign=middle;" vertex="1" parent="1">
          <mxGeometry x="180" y="100" width="50" height="60" as="geometry" />
        </mxCell>
        <mxCell id="G9lIrQecQGFN7doJdilt-5" value="PReLU" style="rounded=0;whiteSpace=wrap;html=1;fillColor=#fff2cc;strokeColor=#d6b656;align=center;verticalAlign=middle;" vertex="1" parent="1">
          <mxGeometry x="230" y="100" width="50" height="60" as="geometry" />
        </mxCell>
        <mxCell id="G9lIrQecQGFN7doJdilt-6" value="k9n64s1" style="text;html=1;strokeColor=none;fillColor=none;align=center;verticalAlign=middle;whiteSpace=wrap;rounded=0;fontSize=10;" vertex="1" parent="1">
          <mxGeometry x="160" y="75" width="100" height="20" as="geometry" />
        </mxCell>
        <mxCell id="G9lIrQecQGFN7doJdilt-7" value="Conv" style="rounded=0;whiteSpace=wrap;html=1;fillColor=#dae8fc;strokeColor=#6c8ebf;align=center;verticalAlign=middle;" vertex="1" parent="1">
          <mxGeometry x="320" y="100" width="40" height="60" as="geometry" />
        </mxCell>
        <mxCell id="G9lIrQecQGFN7doJdilt-8" value="BN" style="rounded=0;whiteSpace=wrap;html=1;fillColor=#f8c471;strokeColor=#b85450;align=center;verticalAlign=middle;" vertex="1" parent="1">
          <mxGeometry x="360" y="100" width="30" height="60" as="geometry" />
        </mxCell>
        <mxCell id="G9lIrQecQGFN7doJdilt-9" value="PReLU" style="rounded=0;whiteSpace=wrap;html=1;fillColor=#fff2cc;strokeColor=#d6b656;align=center;verticalAlign=middle;" vertex="1" parent="1">
          <mxGeometry x="390" y="100" width="40" height="60" as="geometry" />
        </mxCell>
        <mxCell id="G9lIrQecQGFN7doJdilt-10" value="" style="rounded=0;whiteSpace=wrap;html=1;fillColor=#dae8fc;strokeColor=#6c8ebf;align=center;verticalAlign=middle;" vertex="1" parent="1">
          <mxGeometry x="430" y="100" width="40" height="60" as="geometry" />
        </mxCell>
        <mxCell id="G9lIrQecQGFN7doJdilt-11" value="" style="rounded=0;whiteSpace=wrap;html=1;fillColor=#f8c471;strokeColor=#b85450;align=center;verticalAlign=middle;" vertex="1" parent="1">
          <mxGeometry x="470" y="100" width="30" height="60" as="geometry" />
        </mxCell>
        <mxCell id="G9lIrQecQGFN7doJdilt-12" value="Elementwise Sum" style="rounded=0;whiteSpace=wrap;html=1;fillColor=#d5e8d4;strokeColor=#82b366;align=center;verticalAlign=middle;fontSize=9;" vertex="1" parent="1">
          <mxGeometry x="500" y="100" width="50" height="60" as="geometry" />
        </mxCell>
        <mxCell id="G9lIrQecQGFN7doJdilt-13" value="k3n64s1" style="text;html=1;strokeColor=none;fillColor=none;align=center;verticalAlign=middle;whiteSpace=wrap;rounded=0;fontSize=10;" vertex="1" parent="1">
          <mxGeometry x="285" y="75" width="110" height="20" as="geometry" />
        </mxCell>
        <mxCell id="G9lIrQecQGFN7doJdilt-14" value="k3n64s1" style="text;html=1;strokeColor=none;fillColor=none;align=center;verticalAlign=middle;whiteSpace=wrap;rounded=0;fontSize=10;" vertex="1" parent="1">
          <mxGeometry x="395" y="75" width="120" height="20" as="geometry" />
        </mxCell>
        <mxCell id="G9lIrQecQGFN7doJdilt-18" value="residual blocks" style="text;html=1;strokeColor=none;fillColor=none;align=center;verticalAlign=middle;whiteSpace=wrap;rounded=0;fontSize=11;fontColor=#0000FF;" vertex="1" parent="1">
          <mxGeometry x="500" y="20" width="100" height="20" as="geometry" />
        </mxCell>
        <mxCell id="G9lIrQecQGFN7doJdilt-39" value="Conv" style="rounded=0;whiteSpace=wrap;html=1;fillColor=#dae8fc;strokeColor=#6c8ebf;align=center;verticalAlign=middle;" vertex="1" parent="1">
          <mxGeometry x="820" y="100" width="40" height="60" as="geometry" />
        </mxCell>
        <mxCell id="G9lIrQecQGFN7doJdilt-40" value="BN" style="rounded=0;whiteSpace=wrap;html=1;fillColor=#f8c471;strokeColor=#b85450;align=center;verticalAlign=middle;" vertex="1" parent="1">
          <mxGeometry x="860" y="100" width="30" height="60" as="geometry" />
        </mxCell>
        <mxCell id="G9lIrQecQGFN7doJdilt-41" value="Elementwise Sum" style="rounded=0;whiteSpace=wrap;html=1;fillColor=#d5e8d4;strokeColor=#82b366;align=center;verticalAlign=middle;fontSize=9;" vertex="1" parent="1">
          <mxGeometry x="890" y="100" width="50" height="60" as="geometry" />
        </mxCell>
        <mxCell id="G9lIrQecQGFN7doJdilt-209" style="edgeStyle=orthogonalEdgeStyle;rounded=0;orthogonalLoop=1;jettySize=auto;html=1;exitX=0.5;exitY=0;exitDx=0;exitDy=0;entryX=0.5;entryY=0;entryDx=0;entryDy=0;curved=1;strokeColor=#3399FF;" edge="1" parent="1" source="G9lIrQecQGFN7doJdilt-42" target="G9lIrQecQGFN7doJdilt-46">
          <mxGeometry relative="1" as="geometry" />
        </mxCell>
        <mxCell id="G9lIrQecQGFN7doJdilt-42" value="k3n64s1" style="text;html=1;strokeColor=none;fillColor=none;align=center;verticalAlign=middle;whiteSpace=wrap;rounded=0;fontSize=10;" vertex="1" parent="1">
          <mxGeometry x="780" y="75" width="120" height="20" as="geometry" />
        </mxCell>
        <mxCell id="G9lIrQecQGFN7doJdilt-43" value="Conv" style="rounded=0;whiteSpace=wrap;html=1;fillColor=#dae8fc;strokeColor=#6c8ebf;align=center;verticalAlign=middle;" vertex="1" parent="1">
          <mxGeometry x="980" y="100" width="40" height="60" as="geometry" />
        </mxCell>
        <mxCell id="G9lIrQecQGFN7doJdilt-44" value="PixelShuffler X2" style="rounded=0;whiteSpace=wrap;html=1;fillColor=#b0e3ab;strokeColor=#548235;align=center;verticalAlign=middle;fontSize=9;" vertex="1" parent="1">
          <mxGeometry x="1020" y="100" width="50" height="60" as="geometry" />
        </mxCell>
        <mxCell id="G9lIrQecQGFN7doJdilt-117" style="edgeStyle=orthogonalEdgeStyle;rounded=0;orthogonalLoop=1;jettySize=auto;html=1;exitX=1;exitY=0.5;exitDx=0;exitDy=0;entryX=0;entryY=0.5;entryDx=0;entryDy=0;endArrow=none;startFill=0;strokeColor=#3399FF;strokeWidth=2;" edge="1" parent="1" source="G9lIrQecQGFN7doJdilt-45" target="G9lIrQecQGFN7doJdilt-47">
          <mxGeometry relative="1" as="geometry" />
        </mxCell>
        <mxCell id="G9lIrQecQGFN7doJdilt-45" value="PReLU" style="rounded=0;whiteSpace=wrap;html=1;fillColor=#fff2cc;strokeColor=#d6b656;align=center;verticalAlign=middle;" vertex="1" parent="1">
          <mxGeometry x="1070" y="100" width="40" height="60" as="geometry" />
        </mxCell>
        <mxCell id="G9lIrQecQGFN7doJdilt-46" value="k3n256s1" style="text;html=1;strokeColor=none;fillColor=none;align=center;verticalAlign=middle;whiteSpace=wrap;rounded=0;fontSize=10;" vertex="1" parent="1">
          <mxGeometry x="935" y="75" width="130" height="20" as="geometry" />
        </mxCell>
        <mxCell id="G9lIrQecQGFN7doJdilt-47" value="" style="rounded=0;whiteSpace=wrap;html=1;fillColor=#FFFFFF;strokeColor=#6c8ebf;" vertex="1" parent="1">
          <mxGeometry x="1130" y="90" width="60" height="80" as="geometry" />
        </mxCell>
        <mxCell id="G9lIrQecQGFN7doJdilt-48" value="" style="rounded=0;whiteSpace=wrap;html=1;fillColor=#b0e3ab;strokeColor=#548235;" vertex="1" parent="1">
          <mxGeometry x="1152.5" y="100" width="15" height="60" as="geometry" />
        </mxCell>
        <mxCell id="G9lIrQecQGFN7doJdilt-49" value="" style="rounded=0;whiteSpace=wrap;html=1;fillColor=#fff2cc;strokeColor=#d6b656;" vertex="1" parent="1">
          <mxGeometry x="1167.5" y="100" width="15" height="60" as="geometry" />
        </mxCell>
        <mxCell id="G9lIrQecQGFN7doJdilt-50" value="Conv" style="rounded=0;whiteSpace=wrap;html=1;fillColor=#dae8fc;strokeColor=#6c8ebf;align=center;verticalAlign=middle;" vertex="1" parent="1">
          <mxGeometry x="1210" y="100" width="50" height="60" as="geometry" />
        </mxCell>
        <mxCell id="G9lIrQecQGFN7doJdilt-51" value="k9n1s1" style="text;html=1;strokeColor=none;fillColor=none;align=center;verticalAlign=middle;whiteSpace=wrap;rounded=0;fontSize=10;" vertex="1" parent="1">
          <mxGeometry x="1210" y="75" width="50" height="20" as="geometry" />
        </mxCell>
        <mxCell id="G9lIrQecQGFN7doJdilt-52" value="&lt;i&gt;I&lt;sup&gt;SR&lt;/sup&gt;&lt;/i&gt;" style="shape=rectangle;whiteSpace=wrap;html=1;strokeColor=#a1c7ff;fillColor=#FEFFE8;fontSize=14;verticalAlign=middle;align=center;" vertex="1" parent="1">
          <mxGeometry x="1300" y="100" width="60" height="60" as="geometry" />
        </mxCell>
        <mxCell id="G9lIrQecQGFN7doJdilt-53" style="edgeStyle=orthogonalEdgeStyle;rounded=0;orthogonalLoop=1;jettySize=auto;html=1;endArrow=none;endFill=1;strokeColor=#3399FF;strokeWidth=2;startFill=0;" edge="1" parent="1" source="G9lIrQecQGFN7doJdilt-3" target="G9lIrQecQGFN7doJdilt-4">
          <mxGeometry relative="1" as="geometry" />
        </mxCell>
        <mxCell id="G9lIrQecQGFN7doJdilt-54" style="edgeStyle=orthogonalEdgeStyle;rounded=0;orthogonalLoop=1;jettySize=auto;html=1;endArrow=none;endFill=1;strokeColor=#3399FF;strokeWidth=2;startFill=0;" edge="1" parent="1" source="G9lIrQecQGFN7doJdilt-5" target="G9lIrQecQGFN7doJdilt-7">
          <mxGeometry relative="1" as="geometry" />
        </mxCell>
        <mxCell id="G9lIrQecQGFN7doJdilt-55" style="edgeStyle=orthogonalEdgeStyle;rounded=0;orthogonalLoop=1;jettySize=auto;html=1;endArrow=none;endFill=1;strokeColor=#3399FF;strokeWidth=2;startFill=0;entryX=-0.003;entryY=0.465;entryDx=0;entryDy=0;entryPerimeter=0;" edge="1" parent="1" target="G9lIrQecQGFN7doJdilt-120">
          <mxGeometry relative="1" as="geometry">
            <mxPoint x="550.0000000000001" y="129.75" as="sourcePoint" />
            <mxPoint x="570" y="129.75" as="targetPoint" />
          </mxGeometry>
        </mxCell>
        <mxCell id="G9lIrQecQGFN7doJdilt-60" style="edgeStyle=orthogonalEdgeStyle;rounded=0;orthogonalLoop=1;jettySize=auto;html=1;endArrow=classic;endFill=1;strokeColor=#3399FF;strokeWidth=2;" edge="1" parent="1" source="G9lIrQecQGFN7doJdilt-50" target="G9lIrQecQGFN7doJdilt-52">
          <mxGeometry relative="1" as="geometry" />
        </mxCell>
        <mxCell id="G9lIrQecQGFN7doJdilt-61" value="skip connection" style="text;html=1;strokeColor=none;fillColor=none;align=center;verticalAlign=middle;whiteSpace=wrap;rounded=0;fontSize=11;fontColor=#0000FF;" vertex="1" parent="1">
          <mxGeometry x="500" y="230" width="100" height="20" as="geometry" />
        </mxCell>
        <mxCell id="G9lIrQecQGFN7doJdilt-62" style="edgeStyle=orthogonalEdgeStyle;fontSize=12;html=1;endArrow=classic;endFill=1;strokeColor=#3399FF;strokeWidth=1;rounded=0;curved=0;entryX=0.517;entryY=1.064;entryDx=0;entryDy=0;entryPerimeter=0;" edge="1" parent="1" target="G9lIrQecQGFN7doJdilt-41">
          <mxGeometry relative="1" as="geometry">
            <mxPoint x="290" y="130" as="sourcePoint" />
            <mxPoint x="920" y="210" as="targetPoint" />
            <Array as="points">
              <mxPoint x="290" y="210" />
              <mxPoint x="916" y="210" />
            </Array>
          </mxGeometry>
        </mxCell>
        <mxCell id="G9lIrQecQGFN7doJdilt-63" value="upsampling" style="text;html=1;strokeColor=none;fillColor=none;align=center;verticalAlign=middle;whiteSpace=wrap;rounded=0;fontSize=11;fontColor=#0000FF;" vertex="1" parent="1">
          <mxGeometry x="880" y="30" width="100" height="20" as="geometry" />
        </mxCell>
        <mxCell id="G9lIrQecQGFN7doJdilt-65" value="&lt;i&gt;I&lt;sup&gt;HR&lt;/sup&gt;&lt;/i&gt;" style="shape=rectangle;whiteSpace=wrap;html=1;strokeColor=#a1c7ff;fillColor=#e1efff;fontSize=14;verticalAlign=middle;align=center;" vertex="1" parent="1">
          <mxGeometry x="80" y="550" width="60" height="60" as="geometry" />
        </mxCell>
        <mxCell id="G9lIrQecQGFN7doJdilt-66" value="&lt;i&gt;I&lt;sup&gt;SR&lt;/sup&gt;&lt;/i&gt;" style="shape=rectangle;whiteSpace=wrap;html=1;strokeColor=#a1c7ff;fillColor=#FEFFE8;fontSize=14;verticalAlign=middle;align=center;" vertex="1" parent="1">
          <mxGeometry x="80" y="630" width="60" height="60" as="geometry" />
        </mxCell>
        <mxCell id="G9lIrQecQGFN7doJdilt-67" value="Conv" style="rounded=0;whiteSpace=wrap;html=1;fillColor=#dae8fc;strokeColor=#6c8ebf;align=center;verticalAlign=middle;" vertex="1" parent="1">
          <mxGeometry x="200" y="595" width="50" height="60" as="geometry" />
        </mxCell>
        <mxCell id="G9lIrQecQGFN7doJdilt-68" value="Leaky ReLU" style="rounded=0;whiteSpace=wrap;html=1;fillColor=#fff2cc;strokeColor=#d6b656;align=center;verticalAlign=middle;" vertex="1" parent="1">
          <mxGeometry x="250" y="595" width="50" height="60" as="geometry" />
        </mxCell>
        <mxCell id="G9lIrQecQGFN7doJdilt-69" value="k3n64s1" style="text;html=1;strokeColor=none;fillColor=none;align=center;verticalAlign=middle;whiteSpace=wrap;rounded=0;fontSize=10;" vertex="1" parent="1">
          <mxGeometry x="174" y="690" width="100" height="20" as="geometry" />
        </mxCell>
        <mxCell id="G9lIrQecQGFN7doJdilt-70" value="Conv" style="rounded=0;whiteSpace=wrap;html=1;fillColor=#dae8fc;strokeColor=#6c8ebf;align=center;verticalAlign=middle;" vertex="1" parent="1">
          <mxGeometry x="342.5" y="595" width="40" height="60" as="geometry" />
        </mxCell>
        <mxCell id="G9lIrQecQGFN7doJdilt-71" value="BN" style="rounded=0;whiteSpace=wrap;html=1;fillColor=#f8c471;strokeColor=#b85450;align=center;verticalAlign=middle;" vertex="1" parent="1">
          <mxGeometry x="382.5" y="595" width="30" height="60" as="geometry" />
        </mxCell>
        <mxCell id="G9lIrQecQGFN7doJdilt-72" value="Leaky ReLU" style="rounded=0;whiteSpace=wrap;html=1;fillColor=#fff2cc;strokeColor=#d6b656;align=center;verticalAlign=middle;" vertex="1" parent="1">
          <mxGeometry x="412.5" y="595" width="50" height="60" as="geometry" />
        </mxCell>
        <mxCell id="G9lIrQecQGFN7doJdilt-73" value="k3n64s2" style="text;html=1;strokeColor=none;fillColor=none;align=center;verticalAlign=middle;whiteSpace=wrap;rounded=0;fontSize=10;" vertex="1" parent="1">
          <mxGeometry x="294" y="690" width="120" height="20" as="geometry" />
        </mxCell>
        <mxCell id="G9lIrQecQGFN7doJdilt-77" value="k3n128s1" style="text;html=1;strokeColor=none;fillColor=none;align=center;verticalAlign=middle;whiteSpace=wrap;rounded=0;fontSize=10;" vertex="1" parent="1">
          <mxGeometry x="460" y="690" width="120" height="20" as="geometry" />
        </mxCell>
        <mxCell id="G9lIrQecQGFN7doJdilt-81" value="k3n128s2" style="text;html=1;strokeColor=none;fillColor=none;align=center;verticalAlign=middle;whiteSpace=wrap;rounded=0;fontSize=10;" vertex="1" parent="1">
          <mxGeometry x="530" y="730" width="120" height="20" as="geometry" />
        </mxCell>
        <mxCell id="G9lIrQecQGFN7doJdilt-85" value="k3n256s1" style="text;html=1;strokeColor=none;fillColor=none;align=center;verticalAlign=middle;whiteSpace=wrap;rounded=0;fontSize=10;" vertex="1" parent="1">
          <mxGeometry x="590" y="690" width="120" height="20" as="geometry" />
        </mxCell>
        <mxCell id="G9lIrQecQGFN7doJdilt-89" value="k3n256s2" style="text;html=1;strokeColor=none;fillColor=none;align=center;verticalAlign=middle;whiteSpace=wrap;rounded=0;fontSize=10;" vertex="1" parent="1">
          <mxGeometry x="660" y="730" width="120" height="20" as="geometry" />
        </mxCell>
        <mxCell id="G9lIrQecQGFN7doJdilt-93" value="k3n512s1" style="text;html=1;strokeColor=none;fillColor=none;align=center;verticalAlign=middle;whiteSpace=wrap;rounded=0;fontSize=10;" vertex="1" parent="1">
          <mxGeometry x="707" y="690" width="120" height="20" as="geometry" />
        </mxCell>
        <mxCell id="G9lIrQecQGFN7doJdilt-97" value="k3n512s2" style="text;html=1;strokeColor=none;fillColor=none;align=center;verticalAlign=middle;whiteSpace=wrap;rounded=0;fontSize=10;" vertex="1" parent="1">
          <mxGeometry x="780" y="730" width="120" height="20" as="geometry" />
        </mxCell>
        <mxCell id="G9lIrQecQGFN7doJdilt-98" value="Dense (1024)" style="rounded=0;whiteSpace=wrap;html=1;fillColor=#FFFF66;strokeColor=#d6b656;align=center;verticalAlign=middle;" vertex="1" parent="1">
          <mxGeometry x="880" y="595" width="50" height="60" as="geometry" />
        </mxCell>
        <mxCell id="G9lIrQecQGFN7doJdilt-99" value="Leaky ReLU" style="rounded=0;whiteSpace=wrap;html=1;fillColor=#fff2cc;strokeColor=#d6b656;align=center;verticalAlign=middle;" vertex="1" parent="1">
          <mxGeometry x="930" y="595.0000000000001" width="50" height="60" as="geometry" />
        </mxCell>
        <mxCell id="G9lIrQecQGFN7doJdilt-100" value="Dense (1)" style="rounded=0;whiteSpace=wrap;html=1;fillColor=#FFFF66;strokeColor=#d6b656;align=center;verticalAlign=middle;" vertex="1" parent="1">
          <mxGeometry x="980" y="595.0000000000001" width="50" height="60" as="geometry" />
        </mxCell>
        <mxCell id="G9lIrQecQGFN7doJdilt-101" value="Sigmoid" style="rounded=0;whiteSpace=wrap;html=1;fillColor=#99FF99;strokeColor=#6c8ebf;align=center;verticalAlign=middle;" vertex="1" parent="1">
          <mxGeometry x="1030" y="595.0000000000001" width="50" height="60" as="geometry" />
        </mxCell>
        <mxCell id="G9lIrQecQGFN7doJdilt-102" value="Real or Fake" style="shape=rectangle;whiteSpace=wrap;html=1;strokeColor=#a1c7ff;fillColor=#FFFFFF;fontSize=12;verticalAlign=middle;align=center;" vertex="1" parent="1">
          <mxGeometry x="1120" y="595.0000000000001" width="70" height="60" as="geometry" />
        </mxCell>
        <mxCell id="G9lIrQecQGFN7doJdilt-103" style="edgeStyle=orthogonalEdgeStyle;rounded=0;orthogonalLoop=1;jettySize=auto;html=1;endArrow=none;endFill=0;strokeColor=#3399FF;strokeWidth=2;" edge="1" parent="1" source="G9lIrQecQGFN7doJdilt-65" target="G9lIrQecQGFN7doJdilt-67">
          <mxGeometry relative="1" as="geometry">
            <mxPoint x="160" y="580" as="sourcePoint" />
            <mxPoint x="180" y="625" as="targetPoint" />
            <Array as="points">
              <mxPoint x="160" y="580" />
              <mxPoint x="160" y="625" />
            </Array>
          </mxGeometry>
        </mxCell>
        <mxCell id="G9lIrQecQGFN7doJdilt-104" style="edgeStyle=orthogonalEdgeStyle;rounded=0;orthogonalLoop=1;jettySize=auto;html=1;endArrow=none;endFill=0;strokeColor=#3399FF;strokeWidth=2;" edge="1" parent="1" source="G9lIrQecQGFN7doJdilt-66" target="G9lIrQecQGFN7doJdilt-67">
          <mxGeometry relative="1" as="geometry">
            <mxPoint x="160" y="660" as="sourcePoint" />
            <mxPoint x="180" y="625" as="targetPoint" />
            <Array as="points">
              <mxPoint x="160" y="660" />
              <mxPoint x="160" y="625" />
            </Array>
          </mxGeometry>
        </mxCell>
        <mxCell id="G9lIrQecQGFN7doJdilt-105" style="edgeStyle=orthogonalEdgeStyle;rounded=0;orthogonalLoop=1;jettySize=auto;html=1;endArrow=none;endFill=1;strokeColor=#3399FF;strokeWidth=2;startFill=0;" edge="1" parent="1" target="G9lIrQecQGFN7doJdilt-67">
          <mxGeometry relative="1" as="geometry">
            <mxPoint x="160" y="625" as="sourcePoint" />
          </mxGeometry>
        </mxCell>
        <mxCell id="G9lIrQecQGFN7doJdilt-106" style="edgeStyle=orthogonalEdgeStyle;rounded=0;orthogonalLoop=1;jettySize=auto;html=1;endArrow=none;endFill=1;strokeColor=#3399FF;strokeWidth=2;startFill=0;" edge="1" parent="1" source="G9lIrQecQGFN7doJdilt-68" target="G9lIrQecQGFN7doJdilt-70">
          <mxGeometry relative="1" as="geometry" />
        </mxCell>
        <mxCell id="G9lIrQecQGFN7doJdilt-108" style="edgeStyle=orthogonalEdgeStyle;rounded=0;orthogonalLoop=1;jettySize=auto;html=1;endArrow=none;endFill=1;strokeColor=#3399FF;strokeWidth=2;startFill=0;" edge="1" parent="1">
          <mxGeometry relative="1" as="geometry">
            <mxPoint x="559" y="624.52" as="sourcePoint" />
            <mxPoint x="580" y="624.52" as="targetPoint" />
          </mxGeometry>
        </mxCell>
        <mxCell id="G9lIrQecQGFN7doJdilt-116" style="edgeStyle=orthogonalEdgeStyle;rounded=0;orthogonalLoop=1;jettySize=auto;html=1;endArrow=classic;endFill=1;strokeColor=#3399FF;strokeWidth=2;" edge="1" parent="1" source="G9lIrQecQGFN7doJdilt-101" target="G9lIrQecQGFN7doJdilt-102">
          <mxGeometry relative="1" as="geometry" />
        </mxCell>
        <mxCell id="G9lIrQecQGFN7doJdilt-123" value="" style="group" vertex="1" connectable="0" parent="1">
          <mxGeometry x="580" y="90" width="40" height="85" as="geometry" />
        </mxCell>
        <mxCell id="G9lIrQecQGFN7doJdilt-120" value="" style="rounded=0;whiteSpace=wrap;html=1;fillColor=#FFFFFF;strokeColor=#6c8ebf;" vertex="1" parent="G9lIrQecQGFN7doJdilt-123">
          <mxGeometry width="40" height="85" as="geometry" />
        </mxCell>
        <mxCell id="G9lIrQecQGFN7doJdilt-25" value="" style="rounded=0;whiteSpace=wrap;html=1;fillColor=#f8c471;strokeColor=#b85450;" vertex="1" parent="G9lIrQecQGFN7doJdilt-123">
          <mxGeometry x="10" y="7.083333333333333" width="5" height="70.83333333333333" as="geometry" />
        </mxCell>
        <mxCell id="G9lIrQecQGFN7doJdilt-26" value="" style="rounded=0;whiteSpace=wrap;html=1;fillColor=#fff2cc;strokeColor=#d6b656;" vertex="1" parent="G9lIrQecQGFN7doJdilt-123">
          <mxGeometry x="15" y="7.083333333333333" width="5" height="70.83333333333333" as="geometry" />
        </mxCell>
        <mxCell id="G9lIrQecQGFN7doJdilt-27" value="" style="rounded=0;whiteSpace=wrap;html=1;fillColor=#dae8fc;strokeColor=#6c8ebf;" vertex="1" parent="G9lIrQecQGFN7doJdilt-123">
          <mxGeometry x="5" y="7.083333333333333" width="5" height="70.83333333333333" as="geometry" />
        </mxCell>
        <mxCell id="G9lIrQecQGFN7doJdilt-28" value="" style="rounded=0;whiteSpace=wrap;html=1;fillColor=#d5e8d4;strokeColor=#82b366;" vertex="1" parent="G9lIrQecQGFN7doJdilt-123">
          <mxGeometry x="30" y="7.083333333333333" width="5" height="70.83333333333333" as="geometry" />
        </mxCell>
        <mxCell id="G9lIrQecQGFN7doJdilt-118" value="" style="rounded=0;whiteSpace=wrap;html=1;fillColor=#f8c471;strokeColor=#b85450;" vertex="1" parent="G9lIrQecQGFN7doJdilt-123">
          <mxGeometry x="25" y="7.083333333333333" width="5" height="70.83333333333333" as="geometry" />
        </mxCell>
        <mxCell id="G9lIrQecQGFN7doJdilt-119" value="" style="rounded=0;whiteSpace=wrap;html=1;fillColor=#dae8fc;strokeColor=#6c8ebf;" vertex="1" parent="G9lIrQecQGFN7doJdilt-123">
          <mxGeometry x="20" y="7.083333333333333" width="5" height="70.83333333333333" as="geometry" />
        </mxCell>
        <mxCell id="G9lIrQecQGFN7doJdilt-125" value="" style="group" vertex="1" connectable="0" parent="1">
          <mxGeometry x="630" y="90" width="40" height="85" as="geometry" />
        </mxCell>
        <mxCell id="G9lIrQecQGFN7doJdilt-126" value="" style="rounded=0;whiteSpace=wrap;html=1;fillColor=#FFFFFF;strokeColor=#6c8ebf;" vertex="1" parent="G9lIrQecQGFN7doJdilt-125">
          <mxGeometry width="40" height="85" as="geometry" />
        </mxCell>
        <mxCell id="G9lIrQecQGFN7doJdilt-127" value="" style="rounded=0;whiteSpace=wrap;html=1;fillColor=#f8c471;strokeColor=#b85450;" vertex="1" parent="G9lIrQecQGFN7doJdilt-125">
          <mxGeometry x="10" y="7.083333333333333" width="5" height="70.83333333333333" as="geometry" />
        </mxCell>
        <mxCell id="G9lIrQecQGFN7doJdilt-128" value="" style="rounded=0;whiteSpace=wrap;html=1;fillColor=#fff2cc;strokeColor=#d6b656;" vertex="1" parent="G9lIrQecQGFN7doJdilt-125">
          <mxGeometry x="15" y="7.083333333333333" width="5" height="70.83333333333333" as="geometry" />
        </mxCell>
        <mxCell id="G9lIrQecQGFN7doJdilt-129" value="" style="rounded=0;whiteSpace=wrap;html=1;fillColor=#dae8fc;strokeColor=#6c8ebf;" vertex="1" parent="G9lIrQecQGFN7doJdilt-125">
          <mxGeometry x="5" y="7.083333333333333" width="5" height="70.83333333333333" as="geometry" />
        </mxCell>
        <mxCell id="G9lIrQecQGFN7doJdilt-130" value="" style="rounded=0;whiteSpace=wrap;html=1;fillColor=#d5e8d4;strokeColor=#82b366;" vertex="1" parent="G9lIrQecQGFN7doJdilt-125">
          <mxGeometry x="30" y="7.083333333333333" width="5" height="70.83333333333333" as="geometry" />
        </mxCell>
        <mxCell id="G9lIrQecQGFN7doJdilt-131" value="" style="rounded=0;whiteSpace=wrap;html=1;fillColor=#f8c471;strokeColor=#b85450;" vertex="1" parent="G9lIrQecQGFN7doJdilt-125">
          <mxGeometry x="25" y="7.083333333333333" width="5" height="70.83333333333333" as="geometry" />
        </mxCell>
        <mxCell id="G9lIrQecQGFN7doJdilt-132" value="" style="rounded=0;whiteSpace=wrap;html=1;fillColor=#dae8fc;strokeColor=#6c8ebf;" vertex="1" parent="G9lIrQecQGFN7doJdilt-125">
          <mxGeometry x="20" y="7.083333333333333" width="5" height="70.83333333333333" as="geometry" />
        </mxCell>
        <mxCell id="G9lIrQecQGFN7doJdilt-133" value="" style="group" vertex="1" connectable="0" parent="1">
          <mxGeometry x="690" y="90" width="40" height="85" as="geometry" />
        </mxCell>
        <mxCell id="G9lIrQecQGFN7doJdilt-134" value="" style="rounded=0;whiteSpace=wrap;html=1;fillColor=#FFFFFF;strokeColor=#6c8ebf;" vertex="1" parent="G9lIrQecQGFN7doJdilt-133">
          <mxGeometry width="40" height="85" as="geometry" />
        </mxCell>
        <mxCell id="G9lIrQecQGFN7doJdilt-135" value="" style="rounded=0;whiteSpace=wrap;html=1;fillColor=#f8c471;strokeColor=#b85450;" vertex="1" parent="G9lIrQecQGFN7doJdilt-133">
          <mxGeometry x="10" y="7.083333333333333" width="5" height="70.83333333333333" as="geometry" />
        </mxCell>
        <mxCell id="G9lIrQecQGFN7doJdilt-136" value="" style="rounded=0;whiteSpace=wrap;html=1;fillColor=#fff2cc;strokeColor=#d6b656;" vertex="1" parent="G9lIrQecQGFN7doJdilt-133">
          <mxGeometry x="15" y="7.083333333333333" width="5" height="70.83333333333333" as="geometry" />
        </mxCell>
        <mxCell id="G9lIrQecQGFN7doJdilt-137" value="" style="rounded=0;whiteSpace=wrap;html=1;fillColor=#dae8fc;strokeColor=#6c8ebf;" vertex="1" parent="G9lIrQecQGFN7doJdilt-133">
          <mxGeometry x="5" y="7.083333333333333" width="5" height="70.83333333333333" as="geometry" />
        </mxCell>
        <mxCell id="G9lIrQecQGFN7doJdilt-138" value="" style="rounded=0;whiteSpace=wrap;html=1;fillColor=#d5e8d4;strokeColor=#82b366;" vertex="1" parent="G9lIrQecQGFN7doJdilt-133">
          <mxGeometry x="30" y="7.083333333333333" width="5" height="70.83333333333333" as="geometry" />
        </mxCell>
        <mxCell id="G9lIrQecQGFN7doJdilt-139" value="" style="rounded=0;whiteSpace=wrap;html=1;fillColor=#f8c471;strokeColor=#b85450;" vertex="1" parent="G9lIrQecQGFN7doJdilt-133">
          <mxGeometry x="25" y="7.083333333333333" width="5" height="70.83333333333333" as="geometry" />
        </mxCell>
        <mxCell id="G9lIrQecQGFN7doJdilt-140" value="" style="rounded=0;whiteSpace=wrap;html=1;fillColor=#dae8fc;strokeColor=#6c8ebf;" vertex="1" parent="G9lIrQecQGFN7doJdilt-133">
          <mxGeometry x="20" y="7.083333333333333" width="5" height="70.83333333333333" as="geometry" />
        </mxCell>
        <mxCell id="G9lIrQecQGFN7doJdilt-141" value="" style="group" vertex="1" connectable="0" parent="1">
          <mxGeometry x="745" y="90" width="40" height="85" as="geometry" />
        </mxCell>
        <mxCell id="G9lIrQecQGFN7doJdilt-142" value="" style="rounded=0;whiteSpace=wrap;html=1;fillColor=#FFFFFF;strokeColor=#6c8ebf;" vertex="1" parent="G9lIrQecQGFN7doJdilt-141">
          <mxGeometry width="40" height="85" as="geometry" />
        </mxCell>
        <mxCell id="G9lIrQecQGFN7doJdilt-143" value="" style="rounded=0;whiteSpace=wrap;html=1;fillColor=#f8c471;strokeColor=#b85450;" vertex="1" parent="G9lIrQecQGFN7doJdilt-141">
          <mxGeometry x="10" y="7.083333333333333" width="5" height="70.83333333333333" as="geometry" />
        </mxCell>
        <mxCell id="G9lIrQecQGFN7doJdilt-144" value="" style="rounded=0;whiteSpace=wrap;html=1;fillColor=#fff2cc;strokeColor=#d6b656;" vertex="1" parent="G9lIrQecQGFN7doJdilt-141">
          <mxGeometry x="15" y="7.083333333333333" width="5" height="70.83333333333333" as="geometry" />
        </mxCell>
        <mxCell id="G9lIrQecQGFN7doJdilt-145" value="" style="rounded=0;whiteSpace=wrap;html=1;fillColor=#dae8fc;strokeColor=#6c8ebf;" vertex="1" parent="G9lIrQecQGFN7doJdilt-141">
          <mxGeometry x="5" y="7.083333333333333" width="5" height="70.83333333333333" as="geometry" />
        </mxCell>
        <mxCell id="G9lIrQecQGFN7doJdilt-146" value="" style="rounded=0;whiteSpace=wrap;html=1;fillColor=#d5e8d4;strokeColor=#82b366;" vertex="1" parent="G9lIrQecQGFN7doJdilt-141">
          <mxGeometry x="30" y="7.083333333333333" width="5" height="70.83333333333333" as="geometry" />
        </mxCell>
        <mxCell id="G9lIrQecQGFN7doJdilt-147" value="" style="rounded=0;whiteSpace=wrap;html=1;fillColor=#f8c471;strokeColor=#b85450;" vertex="1" parent="G9lIrQecQGFN7doJdilt-141">
          <mxGeometry x="25" y="7.083333333333333" width="5" height="70.83333333333333" as="geometry" />
        </mxCell>
        <mxCell id="G9lIrQecQGFN7doJdilt-148" value="" style="rounded=0;whiteSpace=wrap;html=1;fillColor=#dae8fc;strokeColor=#6c8ebf;" vertex="1" parent="G9lIrQecQGFN7doJdilt-141">
          <mxGeometry x="20" y="7.083333333333333" width="5" height="70.83333333333333" as="geometry" />
        </mxCell>
        <mxCell id="G9lIrQecQGFN7doJdilt-153" value="" style="rounded=0;whiteSpace=wrap;html=1;fillColor=#CCE5FF;strokeColor=#6C8EBF;" vertex="1" parent="1">
          <mxGeometry x="1137.5" y="100" width="15" height="60" as="geometry" />
        </mxCell>
        <mxCell id="G9lIrQecQGFN7doJdilt-156" style="edgeStyle=orthogonalEdgeStyle;fontSize=12;html=1;endArrow=classic;endFill=1;strokeColor=#3399FF;strokeWidth=1;rounded=0;curved=0;entryX=0.5;entryY=1;entryDx=0;entryDy=0;" edge="1" parent="1" target="G9lIrQecQGFN7doJdilt-12">
          <mxGeometry relative="1" as="geometry">
            <mxPoint x="300" y="130" as="sourcePoint" />
            <mxPoint x="926" y="154" as="targetPoint" />
            <Array as="points">
              <mxPoint x="300" y="200" />
              <mxPoint x="525" y="200" />
            </Array>
          </mxGeometry>
        </mxCell>
        <mxCell id="G9lIrQecQGFN7doJdilt-157" style="edgeStyle=orthogonalEdgeStyle;fontSize=12;html=1;endArrow=classic;endFill=1;strokeColor=#3399FF;strokeWidth=1;rounded=0;curved=0;entryX=0.5;entryY=1;entryDx=0;entryDy=0;" edge="1" parent="1" target="G9lIrQecQGFN7doJdilt-28">
          <mxGeometry relative="1" as="geometry">
            <mxPoint x="570" y="130" as="sourcePoint" />
            <mxPoint x="795" y="160" as="targetPoint" />
            <Array as="points">
              <mxPoint x="570" y="200" />
              <mxPoint x="613" y="200" />
            </Array>
          </mxGeometry>
        </mxCell>
        <mxCell id="G9lIrQecQGFN7doJdilt-162" style="edgeStyle=orthogonalEdgeStyle;fontSize=12;html=1;endArrow=classic;endFill=1;strokeColor=#3399FF;strokeWidth=1;rounded=0;curved=0;entryX=0.5;entryY=1;entryDx=0;entryDy=0;" edge="1" parent="1" target="G9lIrQecQGFN7doJdilt-130">
          <mxGeometry relative="1" as="geometry">
            <mxPoint x="627" y="130" as="sourcePoint" />
            <mxPoint x="670" y="168" as="targetPoint" />
            <Array as="points">
              <mxPoint x="627" y="200" />
              <mxPoint x="663" y="200" />
            </Array>
          </mxGeometry>
        </mxCell>
        <mxCell id="G9lIrQecQGFN7doJdilt-163" style="edgeStyle=orthogonalEdgeStyle;fontSize=12;html=1;endArrow=classic;endFill=1;strokeColor=#3399FF;strokeWidth=1;rounded=0;curved=0;entryX=0.5;entryY=1;entryDx=0;entryDy=0;" edge="1" parent="1" target="G9lIrQecQGFN7doJdilt-138">
          <mxGeometry relative="1" as="geometry">
            <mxPoint x="684" y="130" as="sourcePoint" />
            <mxPoint x="720" y="168" as="targetPoint" />
            <Array as="points">
              <mxPoint x="684" y="200" />
              <mxPoint x="723" y="200" />
            </Array>
          </mxGeometry>
        </mxCell>
        <mxCell id="G9lIrQecQGFN7doJdilt-165" style="edgeStyle=orthogonalEdgeStyle;fontSize=12;html=1;endArrow=classic;endFill=1;strokeColor=#3399FF;strokeWidth=1;rounded=0;curved=0;entryX=0.5;entryY=1;entryDx=0;entryDy=0;" edge="1" parent="1" target="G9lIrQecQGFN7doJdilt-146">
          <mxGeometry relative="1" as="geometry">
            <mxPoint x="741" y="130" as="sourcePoint" />
            <mxPoint x="780" y="168" as="targetPoint" />
            <Array as="points">
              <mxPoint x="741" y="200" />
              <mxPoint x="778" y="200" />
            </Array>
          </mxGeometry>
        </mxCell>
        <mxCell id="G9lIrQecQGFN7doJdilt-166" value="" style="shape=curlyBracket;whiteSpace=wrap;html=1;rounded=1;flipH=1;labelPosition=right;verticalLabelPosition=middle;align=left;verticalAlign=middle;rotation=-90;strokeColor=#3399FF;" vertex="1" parent="1">
          <mxGeometry x="540" y="-190" width="20" height="490" as="geometry" />
        </mxCell>
        <mxCell id="G9lIrQecQGFN7doJdilt-168" value="" style="group" vertex="1" connectable="0" parent="1">
          <mxGeometry x="520" y="585" width="40" height="85" as="geometry" />
        </mxCell>
        <mxCell id="G9lIrQecQGFN7doJdilt-169" value="" style="rounded=0;whiteSpace=wrap;html=1;fillColor=#FFFFFF;strokeColor=#6c8ebf;" vertex="1" parent="G9lIrQecQGFN7doJdilt-168">
          <mxGeometry width="40" height="85" as="geometry" />
        </mxCell>
        <mxCell id="G9lIrQecQGFN7doJdilt-170" value="" style="rounded=0;whiteSpace=wrap;html=1;fillColor=#f8c471;strokeColor=#b85450;" vertex="1" parent="G9lIrQecQGFN7doJdilt-168">
          <mxGeometry x="16" y="7.083333333333333" width="8" height="70.83333333333333" as="geometry" />
        </mxCell>
        <mxCell id="G9lIrQecQGFN7doJdilt-171" value="" style="rounded=0;whiteSpace=wrap;html=1;fillColor=#fff2cc;strokeColor=#d6b656;" vertex="1" parent="G9lIrQecQGFN7doJdilt-168">
          <mxGeometry x="24" y="7.083333333333333" width="8" height="70.83333333333333" as="geometry" />
        </mxCell>
        <mxCell id="G9lIrQecQGFN7doJdilt-172" value="" style="rounded=0;whiteSpace=wrap;html=1;fillColor=#dae8fc;strokeColor=#6c8ebf;" vertex="1" parent="G9lIrQecQGFN7doJdilt-168">
          <mxGeometry x="8" y="7.083333333333333" width="8" height="70.83333333333333" as="geometry" />
        </mxCell>
        <mxCell id="G9lIrQecQGFN7doJdilt-177" style="edgeStyle=orthogonalEdgeStyle;rounded=0;orthogonalLoop=1;jettySize=auto;html=1;endArrow=none;endFill=1;strokeColor=#3399FF;strokeWidth=2;startFill=0;" edge="1" parent="1">
          <mxGeometry relative="1" as="geometry">
            <mxPoint x="619" y="624.52" as="sourcePoint" />
            <mxPoint x="640" y="624.52" as="targetPoint" />
          </mxGeometry>
        </mxCell>
        <mxCell id="G9lIrQecQGFN7doJdilt-178" value="" style="group" vertex="1" connectable="0" parent="1">
          <mxGeometry x="580" y="585" width="40" height="85" as="geometry" />
        </mxCell>
        <mxCell id="G9lIrQecQGFN7doJdilt-179" value="" style="rounded=0;whiteSpace=wrap;html=1;fillColor=#FFFFFF;strokeColor=#6c8ebf;" vertex="1" parent="G9lIrQecQGFN7doJdilt-178">
          <mxGeometry width="40" height="85" as="geometry" />
        </mxCell>
        <mxCell id="G9lIrQecQGFN7doJdilt-180" value="" style="rounded=0;whiteSpace=wrap;html=1;fillColor=#f8c471;strokeColor=#b85450;" vertex="1" parent="G9lIrQecQGFN7doJdilt-178">
          <mxGeometry x="16" y="7.083333333333333" width="8" height="70.83333333333333" as="geometry" />
        </mxCell>
        <mxCell id="G9lIrQecQGFN7doJdilt-181" value="" style="rounded=0;whiteSpace=wrap;html=1;fillColor=#fff2cc;strokeColor=#d6b656;" vertex="1" parent="G9lIrQecQGFN7doJdilt-178">
          <mxGeometry x="24" y="7.083333333333333" width="8" height="70.83333333333333" as="geometry" />
        </mxCell>
        <mxCell id="G9lIrQecQGFN7doJdilt-182" value="" style="rounded=0;whiteSpace=wrap;html=1;fillColor=#dae8fc;strokeColor=#6c8ebf;" vertex="1" parent="G9lIrQecQGFN7doJdilt-178">
          <mxGeometry x="8" y="7.083333333333333" width="8" height="70.83333333333333" as="geometry" />
        </mxCell>
        <mxCell id="G9lIrQecQGFN7doJdilt-184" style="edgeStyle=orthogonalEdgeStyle;rounded=0;orthogonalLoop=1;jettySize=auto;html=1;endArrow=none;endFill=1;strokeColor=#3399FF;strokeWidth=2;startFill=0;" edge="1" parent="1">
          <mxGeometry relative="1" as="geometry">
            <mxPoint x="679" y="624.52" as="sourcePoint" />
            <mxPoint x="700" y="624.52" as="targetPoint" />
          </mxGeometry>
        </mxCell>
        <mxCell id="G9lIrQecQGFN7doJdilt-185" value="" style="group" vertex="1" connectable="0" parent="1">
          <mxGeometry x="640" y="585" width="40" height="85" as="geometry" />
        </mxCell>
        <mxCell id="G9lIrQecQGFN7doJdilt-186" value="" style="rounded=0;whiteSpace=wrap;html=1;fillColor=#FFFFFF;strokeColor=#6c8ebf;" vertex="1" parent="G9lIrQecQGFN7doJdilt-185">
          <mxGeometry width="40" height="85" as="geometry" />
        </mxCell>
        <mxCell id="G9lIrQecQGFN7doJdilt-187" value="" style="rounded=0;whiteSpace=wrap;html=1;fillColor=#f8c471;strokeColor=#b85450;" vertex="1" parent="G9lIrQecQGFN7doJdilt-185">
          <mxGeometry x="16" y="7.083333333333333" width="8" height="70.83333333333333" as="geometry" />
        </mxCell>
        <mxCell id="G9lIrQecQGFN7doJdilt-188" value="" style="rounded=0;whiteSpace=wrap;html=1;fillColor=#fff2cc;strokeColor=#d6b656;" vertex="1" parent="G9lIrQecQGFN7doJdilt-185">
          <mxGeometry x="24" y="7.083333333333333" width="8" height="70.83333333333333" as="geometry" />
        </mxCell>
        <mxCell id="G9lIrQecQGFN7doJdilt-189" value="" style="rounded=0;whiteSpace=wrap;html=1;fillColor=#dae8fc;strokeColor=#6c8ebf;" vertex="1" parent="G9lIrQecQGFN7doJdilt-185">
          <mxGeometry x="8" y="7.083333333333333" width="8" height="70.83333333333333" as="geometry" />
        </mxCell>
        <mxCell id="G9lIrQecQGFN7doJdilt-190" style="edgeStyle=orthogonalEdgeStyle;rounded=0;orthogonalLoop=1;jettySize=auto;html=1;endArrow=none;endFill=1;strokeColor=#3399FF;strokeWidth=2;startFill=0;" edge="1" parent="1">
          <mxGeometry relative="1" as="geometry">
            <mxPoint x="739" y="624.52" as="sourcePoint" />
            <mxPoint x="760" y="624.52" as="targetPoint" />
          </mxGeometry>
        </mxCell>
        <mxCell id="G9lIrQecQGFN7doJdilt-191" value="" style="group" vertex="1" connectable="0" parent="1">
          <mxGeometry x="700" y="585" width="40" height="85" as="geometry" />
        </mxCell>
        <mxCell id="G9lIrQecQGFN7doJdilt-192" value="" style="rounded=0;whiteSpace=wrap;html=1;fillColor=#FFFFFF;strokeColor=#6c8ebf;" vertex="1" parent="G9lIrQecQGFN7doJdilt-191">
          <mxGeometry width="40" height="85" as="geometry" />
        </mxCell>
        <mxCell id="G9lIrQecQGFN7doJdilt-193" value="" style="rounded=0;whiteSpace=wrap;html=1;fillColor=#f8c471;strokeColor=#b85450;" vertex="1" parent="G9lIrQecQGFN7doJdilt-191">
          <mxGeometry x="16" y="7.083333333333333" width="8" height="70.83333333333333" as="geometry" />
        </mxCell>
        <mxCell id="G9lIrQecQGFN7doJdilt-194" value="" style="rounded=0;whiteSpace=wrap;html=1;fillColor=#fff2cc;strokeColor=#d6b656;" vertex="1" parent="G9lIrQecQGFN7doJdilt-191">
          <mxGeometry x="24" y="7.083333333333333" width="8" height="70.83333333333333" as="geometry" />
        </mxCell>
        <mxCell id="G9lIrQecQGFN7doJdilt-195" value="" style="rounded=0;whiteSpace=wrap;html=1;fillColor=#dae8fc;strokeColor=#6c8ebf;" vertex="1" parent="G9lIrQecQGFN7doJdilt-191">
          <mxGeometry x="8" y="7.083333333333333" width="8" height="70.83333333333333" as="geometry" />
        </mxCell>
        <mxCell id="G9lIrQecQGFN7doJdilt-196" style="edgeStyle=orthogonalEdgeStyle;rounded=0;orthogonalLoop=1;jettySize=auto;html=1;endArrow=none;endFill=1;strokeColor=#3399FF;strokeWidth=2;startFill=0;" edge="1" parent="1">
          <mxGeometry relative="1" as="geometry">
            <mxPoint x="799" y="624.52" as="sourcePoint" />
            <mxPoint x="820" y="624.52" as="targetPoint" />
          </mxGeometry>
        </mxCell>
        <mxCell id="G9lIrQecQGFN7doJdilt-197" value="" style="group" vertex="1" connectable="0" parent="1">
          <mxGeometry x="760" y="585" width="40" height="85" as="geometry" />
        </mxCell>
        <mxCell id="G9lIrQecQGFN7doJdilt-198" value="" style="rounded=0;whiteSpace=wrap;html=1;fillColor=#FFFFFF;strokeColor=#6c8ebf;" vertex="1" parent="G9lIrQecQGFN7doJdilt-197">
          <mxGeometry width="40" height="85" as="geometry" />
        </mxCell>
        <mxCell id="G9lIrQecQGFN7doJdilt-199" value="" style="rounded=0;whiteSpace=wrap;html=1;fillColor=#f8c471;strokeColor=#b85450;" vertex="1" parent="G9lIrQecQGFN7doJdilt-197">
          <mxGeometry x="16" y="7.083333333333333" width="8" height="70.83333333333333" as="geometry" />
        </mxCell>
        <mxCell id="G9lIrQecQGFN7doJdilt-200" value="" style="rounded=0;whiteSpace=wrap;html=1;fillColor=#fff2cc;strokeColor=#d6b656;" vertex="1" parent="G9lIrQecQGFN7doJdilt-197">
          <mxGeometry x="24" y="7.083333333333333" width="8" height="70.83333333333333" as="geometry" />
        </mxCell>
        <mxCell id="G9lIrQecQGFN7doJdilt-201" value="" style="rounded=0;whiteSpace=wrap;html=1;fillColor=#dae8fc;strokeColor=#6c8ebf;" vertex="1" parent="G9lIrQecQGFN7doJdilt-197">
          <mxGeometry x="8" y="7.083333333333333" width="8" height="70.83333333333333" as="geometry" />
        </mxCell>
        <mxCell id="G9lIrQecQGFN7doJdilt-202" style="edgeStyle=orthogonalEdgeStyle;rounded=0;orthogonalLoop=1;jettySize=auto;html=1;endArrow=none;endFill=1;strokeColor=#3399FF;strokeWidth=2;startFill=0;" edge="1" parent="1">
          <mxGeometry relative="1" as="geometry">
            <mxPoint x="859" y="624.52" as="sourcePoint" />
            <mxPoint x="880" y="624.52" as="targetPoint" />
          </mxGeometry>
        </mxCell>
        <mxCell id="G9lIrQecQGFN7doJdilt-203" value="" style="group" vertex="1" connectable="0" parent="1">
          <mxGeometry x="820" y="585" width="40" height="85" as="geometry" />
        </mxCell>
        <mxCell id="G9lIrQecQGFN7doJdilt-204" value="" style="rounded=0;whiteSpace=wrap;html=1;fillColor=#FFFFFF;strokeColor=#6c8ebf;" vertex="1" parent="G9lIrQecQGFN7doJdilt-203">
          <mxGeometry width="40" height="85" as="geometry" />
        </mxCell>
        <mxCell id="G9lIrQecQGFN7doJdilt-205" value="" style="rounded=0;whiteSpace=wrap;html=1;fillColor=#f8c471;strokeColor=#b85450;" vertex="1" parent="G9lIrQecQGFN7doJdilt-203">
          <mxGeometry x="16" y="7.083333333333333" width="8" height="70.83333333333333" as="geometry" />
        </mxCell>
        <mxCell id="G9lIrQecQGFN7doJdilt-206" value="" style="rounded=0;whiteSpace=wrap;html=1;fillColor=#fff2cc;strokeColor=#d6b656;" vertex="1" parent="G9lIrQecQGFN7doJdilt-203">
          <mxGeometry x="24" y="7.083333333333333" width="8" height="70.83333333333333" as="geometry" />
        </mxCell>
        <mxCell id="G9lIrQecQGFN7doJdilt-207" value="" style="rounded=0;whiteSpace=wrap;html=1;fillColor=#dae8fc;strokeColor=#6c8ebf;" vertex="1" parent="G9lIrQecQGFN7doJdilt-203">
          <mxGeometry x="8" y="7.083333333333333" width="8" height="70.83333333333333" as="geometry" />
        </mxCell>
      </root>
    </mxGraphModel>
  </diagram>
</mxfile>
